<svg xmlns="http://www.w3.org/2000/svg" width="394" height="415" viewBox="0 0 394 415" version="1.1">
	<path d="M 172.301 38.494 C 121.922 46.183, 78.251 73.613, 50.498 115 C 23.556 155.178, 14.145 204.983, 24.627 251.921 C 39.890 320.272, 93.386 372.721, 162.500 387.097 C 176.806 390.072, 207.392 390.833, 222.665 388.593 C 285.912 379.318, 339.238 336.398, 362.551 276.002 C 375.350 242.844, 377.321 204.523, 368.063 168.805 C 351.102 103.363, 297.734 53.416, 230.379 39.946 C 216.340 37.139, 186.132 36.383, 172.301 38.494 M 231.388 149.942 C 224.857 152.698, 223.034 161.188, 227.923 166.077 C 236.997 175.151, 250.883 162.489, 242.250 153.013 C 239.298 149.774, 234.801 148.502, 231.388 149.942 M 273.329 150.419 C 264.176 154.513, 267.420 169, 277.489 169 C 282.230 169, 284.613 167.649, 286.578 163.849 C 290.959 155.377, 282.168 146.465, 273.329 150.419 M 229.223 155.557 C 226.831 157.232, 226.236 161.704, 227.974 164.951 C 229.866 168.487, 236.783 168.272, 239.235 164.600 C 240.637 162.500, 239.989 157.989, 238 156 C 235.602 153.602, 232.254 153.433, 229.223 155.557 M 271.455 156.455 C 270.105 157.805, 269 159.850, 269 161 C 269 163.616, 273.271 168, 275.820 168 C 279.007 168, 283 164.163, 283 161.102 C 283 157.820, 279.310 154, 276.140 154 C 274.913 154, 272.805 155.105, 271.455 156.455 M 98.947 162.640 C 98.395 164.091, 97.615 167.579, 97.213 170.390 L 96.483 175.500 92.492 175.760 C 90.296 175.903, 86.588 176.524, 84.250 177.140 L 80 178.260 80 187.475 C 80 198.261, 81.053 199.914, 88.459 200.748 C 92.659 201.222, 93 201.473, 93 204.095 C 93 205.906, 93.722 207.316, 95 208 C 96.930 209.033, 97 210.094, 97 238.380 C 97 271.439, 96.732 270.294, 104.776 271.580 C 107.997 272.095, 109 272.700, 109 274.128 C 109 275.158, 109.900 276.900, 111 278 C 112.925 279.925, 114.333 280, 148.566 280 C 171.170 280, 184.836 279.623, 186.066 278.965 C 187.754 278.061, 188 276.806, 188 269.087 C 188 259.470, 187.477 258.400, 182.500 257.838 C 179.846 257.539, 179.465 257.080, 179.196 253.856 C 178.639 247.185, 177.740 246.923, 154.620 246.699 L 134.010 246.500 134.005 227.750 L 134 209 140.013 209 L 146.027 209 144.407 212.750 C 139.513 224.080, 138.760 226.093, 139.238 226.572 C 139.527 226.860, 142.966 227.365, 146.882 227.693 C 150.797 228.022, 154 228.472, 154 228.695 C 154 228.917, 153.339 230.378, 152.531 231.941 C 151.142 234.625, 151.184 234.816, 153.281 235.378 C 154.501 235.705, 159.601 235.979, 164.614 235.986 C 172.931 235.999, 173.936 235.789, 176.114 233.586 C 177.426 232.259, 181.839 223.505, 185.920 214.134 C 191.819 200.586, 193.766 197.034, 195.420 196.797 C 198.744 196.322, 198.412 192.929, 194.135 183.671 C 190.972 176.825, 189.641 174.948, 187.582 174.431 C 185.781 173.979, 184.420 172.478, 183.093 169.477 C 180.676 164.013, 178.247 162.750, 170.160 162.750 C 165.059 162.750, 163.373 163.137, 162.344 164.544 C 161.082 166.270, 160.956 166.270, 159.049 164.544 C 157.592 163.226, 155.354 162.734, 150.609 162.689 C 141.121 162.600, 139.604 164.672, 142.512 173.750 C 143.195 175.881, 142.967 176, 138.186 176 C 133.714 176, 133.103 175.744, 132.820 173.750 C 132.554 171.880, 131.783 171.448, 128.250 171.193 C 124.561 170.926, 124 170.579, 124 168.568 C 124 167.293, 123.719 164.844, 123.375 163.125 L 122.750 160 111.350 160 L 99.950 160 98.947 162.640 M 104.667 167.667 C 104.300 168.033, 104 170.223, 104 172.532 C 104 178.966, 101.119 182, 95.009 182 C 87.529 182, 87 182.437, 87 188.607 L 87 194 93.427 194 C 99.180 194, 100.072 194.277, 101.927 196.635 C 103.929 199.179, 104 200.400, 104 232.135 L 104 265 138 265 L 172 265 172 259 L 172 253 146.557 253 C 121.398 253, 121.096 252.975, 119.557 250.777 C 118.247 248.908, 118 244.537, 118 223.277 C 118 190.885, 115.882 193.687, 140.013 194.155 C 149.815 194.345, 158.173 194.838, 158.585 195.251 C 158.997 195.664, 156.823 201.626, 153.754 208.501 L 148.173 221 154.972 221 C 161.665 221, 161.796 220.949, 163.295 217.750 C 169.623 204.247, 174 193.667, 173.475 193.142 C 173.131 192.798, 167.802 192.513, 161.631 192.508 C 148.894 192.499, 146.127 191.432, 143.262 185.423 L 141.603 181.944 131.602 182.085 C 122.383 182.214, 121.460 182.051, 119.800 180.002 C 118.810 178.779, 118 176.760, 118 175.514 C 118 174.269, 117.719 171.844, 117.375 170.125 C 116.763 167.063, 116.635 167, 111.042 167 C 107.902 167, 105.033 167.300, 104.667 167.667 M 150.877 175.250 C 153.488 181.113, 153.887 181.519, 157.302 181.809 L 160.943 182.117 158.307 176.309 C 155.329 169.748, 154.597 169.037, 150.796 169.015 L 148.092 169 150.877 175.250 M 169 169.371 C 169 169.644, 170.184 172.598, 171.631 175.934 C 174.103 181.635, 174.464 182, 177.631 182 C 179.484 182, 180.971 181.662, 180.937 181.250 C 180.902 180.838, 179.657 178.025, 178.171 175 C 175.818 170.209, 175.052 169.460, 172.235 169.187 C 170.456 169.014, 169 169.097, 169 169.371 M 211.557 178.223 C 210.206 180.151, 210 186.150, 210 223.500 C 210 272.672, 209.635 270.485, 218.036 271.599 C 222.666 272.213, 223 272.448, 223 275.094 C 223 276.874, 223.720 278.315, 224.934 278.965 C 227.583 280.382, 307.417 280.382, 310.066 278.965 C 311.933 277.965, 312 276.405, 312 233.665 C 312 200.570, 311.697 189.097, 310.800 188.200 C 310.140 187.540, 308.115 187, 306.300 187 C 303.127 187, 303 186.849, 303 183.071 C 303 175.694, 305.016 176, 256.485 176 L 213.113 176 211.557 178.223 M 188.840 184.498 C 188.602 186.587, 187.673 187.880, 185.750 188.797 C 184.238 189.519, 183 190.519, 183 191.019 C 183 192.818, 186.877 193.994, 190.350 193.249 L 193.836 192.500 191.508 187.006 C 189.315 181.829, 189.160 181.684, 188.840 184.498 M 217 223.500 L 217 265 256.500 265 L 296 265 296 223.500 L 296 182 256.500 182 L 217 182 217 223.500 M 303.784 229.589 L 303.500 268.178 301.139 270.089 C 298.912 271.892, 296.722 272, 262.389 272 C 226.667 272, 226 272.037, 226 274 C 226 275.968, 226.667 276, 267.500 276 L 309 276 309 233.500 L 309 191 306.534 191 L 304.068 191 303.784 229.589 M 233 196 C 231.105 197.895, 231 199.333, 231 223.500 C 231 247.667, 231.105 249.105, 233 251 C 234.878 252.878, 236.333 253, 256.845 253 C 277.783 253, 278.769 252.913, 280.595 250.895 C 282.363 248.941, 282.500 246.963, 282.500 223.307 L 282.500 197.823 280.139 195.912 C 277.979 194.163, 275.959 194, 256.389 194 C 236.333 194, 234.875 194.125, 233 196 M 181 196 C 181 196.550, 181.477 197, 182.059 197 C 182.641 197, 182.840 196.550, 182.500 196 C 182.160 195.450, 181.684 195, 181.441 195 C 181.198 195, 181 195.450, 181 196 M 125 223.500 L 125 246 127.500 246 L 130 246 130 227.155 C 130 204.567, 129.790 205, 140.722 205 C 147.416 205, 149 204.315, 149 201.418 C 149 201.188, 143.600 201, 137 201 L 125 201 125 223.500 M 174.584 210.264 C 172.219 215.359, 169.969 220.522, 169.583 221.738 C 168.601 224.834, 164.247 228, 160.972 228 C 158.657 228, 157 229.494, 157 231.582 C 157 232.682, 172.840 231.897, 173.789 230.750 C 174.986 229.303, 187 202.964, 187 201.787 C 187 201.354, 185.174 201, 182.942 201 L 178.884 201 174.584 210.264 M 238 223.500 L 238 246 240.500 246 L 243 246 243 227.500 C 243 203.598, 241.879 205, 261 205 C 274.333 205, 275 204.905, 275 203 C 275 201.072, 274.333 201, 256.500 201 L 238 201 238 223.500 M 247 227.370 L 247 245.739 260.750 246.234 C 268.313 246.507, 274.837 246.539, 275.250 246.306 C 275.663 246.073, 276 237.584, 276 227.441 L 276 209 261.500 209 L 247 209 247 227.370 M 179.625 264.945 C 178.497 271.999, 178.493 272, 143.777 272 C 113.602 272, 113 272.039, 113 274.013 C 113 275.997, 113.505 276.022, 148.750 275.763 L 184.500 275.500 184.802 269.091 C 185.011 264.640, 184.706 262.430, 183.802 261.856 C 181.291 260.264, 180.250 261.034, 179.625 264.945" stroke="none" fill="black" fill-rule="evenodd"/>
</svg>